<?xml version="1.0" encoding="iso-8859-1"?>
<!-- Uploaded to: SVG Repo, www.svgrepo.com, Generator: SVG Repo Mixer Tools -->
<svg fill="#000000" height="800px" width="800px" version="1.1" id="Layer_1" xmlns="http://www.w3.org/2000/svg" xmlns:xlink="http://www.w3.org/1999/xlink" 
	 viewBox="0 0 512 512" xml:space="preserve">
<g transform="translate(1 1)">
	<g>
		<g>
			<path d="M511,54.467v-51.2H340.333v76.8h-25.6v38.638c-24.7,8.714-42.667,32.149-42.667,60.349v29.013v204.8v29.867
				c0,34.987,28.16,64,64,64H447c34.987,0,64-29.013,63.147-64v-263.68c0-27.339-17.195-51.031-41.813-60.082V80.067h-25.6v-25.6
				H511z M289.133,361.667h85.333c5.12,0,8.533-3.413,8.533-8.533s-3.413-8.533-8.533-8.533h-85.333V319h85.333
				c5.12,0,8.533-3.413,8.533-8.533c0-5.12-3.413-8.533-8.533-8.533h-85.333v-25.6H331.8c5.12,0,8.533-3.413,8.533-8.533
				c0-5.12-3.413-8.533-8.533-8.533h-42.667v-34.133h136.533V395.8H289.133V361.667z M493.08,179.053V441.88
				c0,25.6-20.48,46.933-46.933,46.933h-110.08c-25.6,0-46.933-20.48-46.933-46.933v-29.013h153.6v-204.8h-153.6V178.2
				c0-25.6,20.48-46.933,46.933-46.933v0.853h110.08C471.747,132.12,493.08,152.6,493.08,179.053z M451.267,97.133V114.2H331.8
				V97.133h8.533h102.4H451.267z M357.4,80.067V20.333h136.533V37.4h-68.267v42.667H357.4z"/>
			<path d="M109.933,131.267C46.787,131.267-1,153.453-1,182.467v51.2V319v68.267v17.067c0,29.013,47.787,51.2,110.933,51.2
				s110.933-22.187,110.933-51.2v-17.067V319v-85.333v-51.2C220.867,153.453,173.08,131.267,109.933,131.267z M203.8,210.627v23.04
				c0,16.213-40.107,34.133-93.867,34.133s-93.867-17.92-93.867-34.133v-23.04c18.59,13.74,50.197,22.116,87.564,22.964
				c0.443,0.01,0.887,0.018,1.332,0.027c0.557,0.01,1.113,0.021,1.673,0.028c1.095,0.013,2.193,0.022,3.298,0.022
				s2.203-0.008,3.298-0.022c0.56-0.007,1.116-0.018,1.673-0.028c0.444-0.008,0.889-0.016,1.332-0.027
				C153.603,232.743,185.21,224.367,203.8,210.627z M109.933,148.333c53.76,0,93.867,17.92,93.867,34.133
				c0,0.76-0.088,1.524-0.262,2.289c-0.347,1.531-1.036,3.069-2.044,4.597c-0.336,0.51-0.708,1.018-1.114,1.525
				c-0.406,0.507-0.848,1.012-1.323,1.515c-0.713,0.755-1.502,1.504-2.364,2.247c-0.575,0.495-1.183,0.987-1.822,1.475
				c-0.32,0.244-0.648,0.487-0.983,0.729c-4.028,2.906-9.19,5.667-15.311,8.153c-1.53,0.622-3.121,1.226-4.768,1.812
				c-1.098,0.39-2.222,0.772-3.371,1.145s-2.321,0.736-3.518,1.09c-3.591,1.061-7.396,2.035-11.394,2.906
				c-7.329,1.596-15.306,2.843-23.796,3.643c-1.544,0.145-3.104,0.276-4.681,0.391c-5.519,0.403-11.235,0.617-17.115,0.617
				s-11.597-0.214-17.115-0.617c-1.577-0.115-3.137-0.246-4.681-0.391c-8.49-0.8-16.467-2.047-23.796-3.643
				c-3.998-0.87-7.803-1.844-11.394-2.906c-1.197-0.354-2.37-0.717-3.518-1.09s-2.272-0.754-3.371-1.145
				c-1.648-0.585-3.238-1.19-4.768-1.812c-6.121-2.487-11.283-5.247-15.311-8.153c-0.336-0.242-0.663-0.485-0.983-0.729
				c-0.64-0.488-1.247-0.98-1.822-1.475c-0.863-0.742-1.651-1.492-2.364-2.247c-0.475-0.503-0.916-1.008-1.323-1.515
				c-0.406-0.507-0.778-1.015-1.114-1.525c-1.008-1.529-1.697-3.066-2.044-4.597c-0.174-0.766-0.262-1.529-0.262-2.289
				C16.067,166.253,56.173,148.333,109.933,148.333z M16.067,327.533H50.2v51.2H16.067V327.533z M109.933,438.467
				c-53.76,0-93.867-17.92-93.867-34.133V395.8h42.667c5.12,0,8.533-3.413,8.533-8.533V319c0-5.12-3.413-8.533-8.533-8.533H16.067
				v-48.64c18.59,13.74,50.197,22.116,87.564,22.964c0.443,0.01,0.887,0.018,1.332,0.027c0.557,0.01,1.113,0.021,1.673,0.028
				c1.095,0.013,2.193,0.022,3.298,0.022s2.203-0.008,3.298-0.022c0.56-0.007,1.116-0.018,1.673-0.028
				c0.444-0.008,0.889-0.016,1.332-0.027c37.367-0.847,68.975-9.224,87.564-22.964v48.64H127c-5.12,0-8.533,3.413-8.533,8.533
				v68.267c0,5.12,3.413,8.533,8.533,8.533h76.8v8.533C203.8,420.547,163.693,438.467,109.933,438.467z M203.8,344.6h-42.667
				c-5.12,0-8.533,3.413-8.533,8.533s3.413,8.533,8.533,8.533H203.8v17.067h-68.267v-51.2H203.8V344.6z"/>
		</g>
	</g>
</g>
</svg>