<?xml version="1.0" encoding="iso-8859-1"?>
<!-- Uploaded to: SVG Repo, www.svgrepo.com, Generator: SVG Repo Mixer Tools -->
<svg fill="#000000" height="800px" width="800px" version="1.1" id="Layer_1" xmlns="http://www.w3.org/2000/svg" xmlns:xlink="http://www.w3.org/1999/xlink" 
	 viewBox="0 0 506.77 506.77" xml:space="preserve">
<g transform="translate(1 1)">
	<g>
		<g>
			<path d="M497.979,6.902c-14.124-14.124-41.49-8.828-81.214,14.124c-36.193,21.186-77.683,53.848-116.524,93.572l-156.69,156.69
				l-7.503-7.503L8.931,390.901c-13.241,13.241-13.241,34.428,0,47.669L66.31,495.95c6.179,6.179,15.007,9.71,23.834,9.71
				s16.772-3.531,23.834-10.593l127.117-126.234l-8.324-8.324l157.51-155.869c39.724-39.724,72.386-81.214,93.572-116.524
				C506.807,47.508,512.103,21.026,497.979,6.902z M101.621,482.708c-6.179,6.179-16.772,6.179-22.952,0L21.29,425.329
				c-6.179-6.179-6.179-15.89,0-22.952l114.759-114.759l80.331,80.331L101.621,482.708z M381.977,65.997l-0.381,2.289l84.527,14.088
				c-8.228,13.622-18.207,28.032-29.658,42.854l-96.653-24.161C353.935,88.295,368.132,76.476,381.977,65.997z M312.6,126.957
				c3.908-3.908,7.846-7.757,11.8-11.544l99.948,24.984c-10.935,13.258-22.944,26.737-35.85,40.186L284.877,154.68L312.6,126.957z
				 M231.03,208.526l39.288-39.288l103.801,25.948l-39.467,39.244L231.03,208.526z M320.029,248.971l-40.214,39.987L176.44,263.117
				l40.032-40.032L320.029,248.971z M161.881,277.675L265.19,303.5l-44.397,44.146l-64.441-64.441L161.881,277.675z M475.196,65.988
				l-75.748-12.625c8.996-6.191,17.755-11.715,26.145-16.448c32.662-19.421,53.848-22.069,59.145-16.772
				C490.052,24.698,488.174,40.36,475.196,65.988z"/>
			<path d="M83.966,376.777l-30.897,30.897v12.359l30.897,30.897h12.359l30.897-30.897v-12.359l-30.897-30.897H83.966z
				 M90.145,432.391l-18.538-18.538l18.538-18.538l18.538,18.538L90.145,432.391z"/>
		</g>
	</g>
</g>
</svg>