<?xml version="1.0" encoding="iso-8859-1"?>
<!-- Uploaded to: SVG Repo, www.svgrepo.com, Generator: SVG Repo Mixer Tools -->
<svg fill="#000000" height="800px" width="800px" version="1.1" id="Layer_1" xmlns="http://www.w3.org/2000/svg" xmlns:xlink="http://www.w3.org/1999/xlink" 
	 viewBox="0 0 503.467 503.467" xml:space="preserve">
<g transform="translate(1 1)">
	<g>
		<g>
			<path d="M421.4,169.667C421.4,75.8,344.6-1,250.733-1S80.067,75.8,80.067,169.667c0,82.186,58.876,151.287,136.533,167.212
				v101.588c0,2.56-1.707,4.267-4.267,4.267h-34.987c-11.093,0-20.48,9.387-20.48,20.48v18.773c0,11.093,9.387,20.48,20.48,20.48
				H324.12c11.093,0,20.48-8.533,20.48-20.48v-18.773c0-11.093-9.387-20.48-20.48-20.48h-34.987c-2.56,0-4.267-1.707-4.267-4.267
				V336.879C362.524,320.954,421.4,251.853,421.4,169.667z M97.133,169.667c0-84.48,69.12-153.6,153.6-153.6
				s153.6,69.12,153.6,153.6s-69.12,153.6-153.6,153.6S97.133,254.147,97.133,169.667z M267.8,340.333v98.133
				c0,11.947,9.387,21.333,21.333,21.333h34.987c1.707,0,3.413,1.707,3.413,3.413v18.773c0,1.707-1.707,3.413-3.413,3.413H177.347
				c-1.707,0-3.413-1.707-3.413-3.413v-18.773c0-1.707,1.707-3.413,3.413-3.413h34.987c11.947,0,21.333-9.387,21.333-21.333v-98.133
				H267.8z"/>
			<path d="M387.267,169.667c0-75.093-61.44-136.533-136.533-136.533S114.2,94.573,114.2,169.667S175.64,306.2,250.733,306.2
				S387.267,244.76,387.267,169.667z M131.267,169.667c0-65.707,53.76-119.467,119.467-119.467S370.2,103.96,370.2,169.667
				s-53.76,119.467-119.467,119.467S131.267,235.373,131.267,169.667z"/>
			<path d="M173.933,135.533c2.56,0,4.267-0.853,5.973-2.56L214.04,98.84c3.413-3.413,3.413-8.533,0-11.947s-8.533-3.413-11.947,0
				l-34.133,34.133c-3.413,3.413-3.413,8.533,0,11.947C169.667,134.68,171.373,135.533,173.933,135.533z"/>
			<path d="M173.933,178.2c2.56,0,4.267-0.853,5.973-2.56l17.067-17.067c3.413-3.413,3.413-8.533,0-11.947s-8.533-3.413-11.947,0
				l-17.067,17.067c-3.413,3.413-3.413,8.533,0,11.947C169.667,177.347,171.373,178.2,173.933,178.2z"/>
			<path d="M225.133,127c2.56,0,4.267-0.853,5.973-2.56l25.6-25.6c3.413-3.413,3.413-8.533,0-11.947s-8.533-3.413-11.947,0
				l-25.6,25.6c-3.413,3.413-3.413,8.533,0,11.947C220.867,126.147,222.573,127,225.133,127z"/>
			<path d="M256.707,129.56c-3.413-3.413-8.533-3.413-11.947,0l-76.8,76.8c-3.413,3.413-3.413,8.533,0,11.947
				c1.707,1.707,3.413,2.56,5.973,2.56s4.267-0.853,5.973-2.56l76.8-76.8C260.12,138.093,260.12,132.973,256.707,129.56z"/>
			<path d="M284.867,109.933c2.56,0,4.267-0.853,5.973-2.56l8.533-8.533c3.413-3.413,3.413-8.533,0-11.947s-8.533-3.413-11.947,0
				l-8.533,8.533c-3.413,3.413-3.413,8.533,0,11.947C280.6,109.08,282.307,109.933,284.867,109.933z"/>
			<path d="M208.067,127c-5.12,0-8.533,3.413-8.533,8.533s3.413,8.533,8.533,8.533s8.533-3.413,8.533-8.533
				C216.6,131.267,213.187,127,208.067,127z"/>
			<path d="M267.8,127c5.12,0,8.533-3.413,8.533-8.533c0-4.267-3.413-8.533-8.533-8.533s-8.533,3.413-8.533,8.533
				S262.68,127,267.8,127z"/>
		</g>
	</g>
</g>
</svg>