<?xml version="1.0" encoding="iso-8859-1"?>
<!-- Uploaded to: SVG Repo, www.svgrepo.com, Generator: SVG Repo Mixer Tools -->
<svg fill="#000000" height="800px" width="800px" version="1.1" id="Layer_1" xmlns="http://www.w3.org/2000/svg" xmlns:xlink="http://www.w3.org/1999/xlink" 
	 viewBox="0 0 502.519 502.519" xml:space="preserve">
<g transform="translate(1 1)">
	<g>
		<g>
			<path d="M198.111,304.304c0-11.378-9.482-20.859-20.859-20.859h-17.067V74.852h4.741c7.585,0,13.274-4.741,15.17-12.326
				l7.585-45.511c0-4.741-0.948-8.533-3.793-12.326C181.044,0.896,177.252-1,172.511-1h-43.615c-3.793,0-8.533,1.896-11.378,5.689
				c-2.844,3.793-3.793,7.585-3.793,12.326l7.585,45.511c0.948,6.637,7.585,12.326,15.17,12.326h4.741v208.593h-17.067
				c-11.378,0-20.859,9.482-20.859,20.859v26.548H84.333v170.667h132.741V330.852h-18.963V304.304z M133.637,17.963h34.133
				l-6.637,37.926h-21.807L133.637,17.963z M122.259,304.304c0-0.948,0.948-1.896,1.896-1.896h53.096
				c0.948,0,1.896,0.948,1.896,1.896v26.548h-56.889V304.304z M198.111,482.556h-94.815V349.815h94.815V482.556z"/>
			<path d="M396.274,169.667v-23.704c0-13.274-10.43-23.704-23.704-23.704h-46.459c-13.274,0-23.704,10.43-23.704,23.704v23.704
				h-18.963v331.852h132.741v-85.333V245.519v-75.852H396.274z M322.319,145.963c0-2.844,1.896-4.741,4.741-4.741h46.459
				c2.844,0,4.741,1.896,4.741,4.741v23.704h-55.941V145.963z M397.222,397.222h-37.926V264.482h37.926V397.222z M340.333,245.519
				v170.667h56.889v66.37h-94.815V188.63h93.867h0.948v56.889H340.333z"/>
		</g>
	</g>
</g>
</svg>