<?xml version="1.0" encoding="iso-8859-1"?>
<!-- Uploaded to: SVG Repo, www.svgrepo.com, Generator: SVG Repo Mixer Tools -->
<svg fill="#000000" height="800px" width="800px" version="1.1" id="Layer_1" xmlns="http://www.w3.org/2000/svg" xmlns:xlink="http://www.w3.org/1999/xlink" 
	 viewBox="0 0 503.607 503.607" xml:space="preserve">
<g transform="translate(1 1)">
	<g>
		<g>
			<path d="M454.291,116.508h-16.787V82.934H403.93V-1H303.209v16.787H202.487c-36.931,0-70.505,25.18-80.577,60.433
				c-1.679,7.554-0.839,15.108,4.197,21.823c4.197,6.715,11.751,10.072,20.144,10.072c10.911,0,20.984-7.554,24.341-18.466
				c4.197-14.269,16.787-23.502,31.895-23.502h100.721v16.787h-33.574v33.574h-16.787c-14.269,0-25.18,10.911-25.18,25.18v50.361
				v251.803v33.574c0,14.269,10.911,25.18,25.18,25.18h201.443c14.269,0,25.18-10.911,25.18-25.18v-33.574V192.049v-50.361
				C479.471,127.42,468.56,116.508,454.291,116.508z M202.487,49.361c-21.823,0-41.128,14.269-47.843,35.253
				c-1.679,4.197-5.036,6.715-8.393,6.715c-2.518,0-5.036-0.839-6.715-3.357c-1.679-2.518-2.518-5.036-1.679-7.554
				c8.393-27.698,35.253-47.843,64.63-47.843h100.721v16.787H202.487z M319.996,66.148V15.787h67.148v67.148h-67.148V66.148z
				 M286.422,99.721h16.787H403.93h16.787v16.787h-33.574h-67.148h-33.574V99.721z M244.455,209.675
				c56.236,4.197,100.721,50.361,100.721,108.275c0,57.915-44.485,104.918-100.721,109.115V209.675z M361.963,317.951
				c0-46.711-25.284-87.383-62.946-109.115h163.667v218.229H299.017C336.678,405.333,361.963,364.662,361.963,317.951z
				 M370.356,192.049h-33.574v-58.754h33.574V192.049z M252.848,133.295h16.787h50.361v58.754h-75.541v-50.361
				C244.455,136.652,247.812,133.295,252.848,133.295z M462.684,477.426c0,5.036-3.357,8.393-8.393,8.393H252.848
				c-5.036,0-8.393-3.357-8.393-8.393v-33.574h218.229V477.426z M387.143,192.049v-58.754h50.361h16.787
				c5.036,0,8.393,3.357,8.393,8.393v50.361H387.143z"/>
			<path d="M90.855,239.052c13.43-14.269,15.108-36.092,3.357-52.039c-8.393-10.911-17.626-27.698-15.948-45.325
				c0.839-3.357-0.839-6.715-4.197-8.393c-3.357-1.679-6.715-1.679-9.233,0.839c-1.679,1.679-36.092,31.056-41.967,70.505
				c-3.357,17.626,5.036,33.574,20.984,41.967c5.875,2.518,12.59,4.197,18.466,4.197C72.389,250.803,82.461,246.607,90.855,239.052z
				 M39.655,207.157c2.518-18.466,14.269-36.092,23.502-47.003c2.518,12.59,8.393,25.18,17.626,36.931
				c7.554,9.233,6.715,21.823-1.679,30.216c-8.393,8.393-19.305,7.554-26.859,4.197C44.691,227.302,37.976,219.748,39.655,207.157z"
				/>
			<path d="M178.986,141.689c0.839-3.357-0.839-6.715-4.197-8.393c-2.518-1.679-6.715-1.679-9.233,0.839
				c-1.679,1.679-36.092,31.056-41.967,70.505c-3.357,17.626,5.036,33.574,20.984,41.967c5.875,2.518,12.59,4.197,18.466,4.197
				c10.072,0,20.144-4.197,28.538-11.751c13.43-14.269,15.108-36.092,3.357-52.039C186.54,176.102,177.307,159.315,178.986,141.689z
				 M179.825,227.302c-8.393,8.393-19.305,7.554-26.859,4.197c-7.554-4.197-14.269-11.751-12.59-24.341
				c2.518-18.466,14.269-36.092,23.502-47.003c2.518,12.59,8.393,25.18,17.626,36.931
				C189.058,206.318,188.219,218.908,179.825,227.302z"/>
			<path d="M116.035,267.59c0.839-3.357-0.839-6.715-4.197-8.393c-2.518-1.679-6.715-1.679-9.233,0.839
				c-1.679,1.679-36.092,31.056-41.967,70.505c-3.357,17.626,5.036,33.574,20.984,41.967c5.875,2.518,12.59,4.197,18.466,4.197
				c10.072,0,20.144-4.197,28.538-11.751c13.429-14.269,15.108-36.092,3.357-52.039C123.589,302.003,114.356,285.216,116.035,267.59
				z M116.874,353.203c-8.393,8.393-19.305,7.554-26.859,4.197c-7.554-4.197-14.269-11.751-12.59-24.341
				c2.518-18.466,14.269-36.092,23.502-47.003c2.518,12.59,8.393,25.18,17.626,36.931
				C126.107,332.22,125.268,344.81,116.874,353.203z"/>
		</g>
	</g>
</g>
</svg>