<?xml version="1.0" encoding="iso-8859-1"?>
<!-- Uploaded to: SVG Repo, www.svgrepo.com, Generator: SVG Repo Mixer Tools -->
<svg fill="#000000" height="800px" width="800px" version="1.1" id="Layer_1" xmlns="http://www.w3.org/2000/svg" xmlns:xlink="http://www.w3.org/1999/xlink" 
	 viewBox="0 0 510.635 510.635" xml:space="preserve">
<g transform="translate(1 1)">
	<g>
		<g>
			<path d="M345.795,347.501c-5.12,0-8.533,4.267-8.533,8.533c0,5.12,3.413,8.533,8.533,8.533c5.12,0,8.533-3.413,8.533-8.533
				S350.915,347.501,345.795,347.501z"/>
			<path d="M260.461,321.901c-5.12,0-8.533,4.267-8.533,8.533c0,5.12,3.413,8.533,8.533,8.533c5.12,0,8.533-3.413,8.533-8.533
				S265.581,321.901,260.461,321.901z"/>
			<path d="M243.395,313.368c5.12,0,8.533-3.413,8.533-8.533s-3.413-8.533-8.533-8.533s-8.533,4.267-8.533,8.533
				C234.861,309.955,238.275,313.368,243.395,313.368z"/>
			<path d="M277.528,296.301c-5.12,0-8.533,4.267-8.533,8.533c0,5.12,3.413,8.533,8.533,8.533c5.12,0,8.533-3.413,8.533-8.533
				S282.648,296.301,277.528,296.301z"/>
			<path d="M311.661,347.501c-5.12,0-8.533,4.267-8.533,8.533c0,5.12,3.413,8.533,8.533,8.533s8.533-3.413,8.533-8.533
				S316.781,347.501,311.661,347.501z"/>
			<path d="M345.795,296.301c-5.12,0-8.533,4.267-8.533,8.533c0,5.12,3.413,8.533,8.533,8.533c5.12,0,8.533-3.413,8.533-8.533
				S350.915,296.301,345.795,296.301z"/>
			<path d="M379.928,296.301c-5.12,0-8.533,4.267-8.533,8.533c0,5.12,3.413,8.533,8.533,8.533s8.533-3.413,8.533-8.533
				S385.048,296.301,379.928,296.301z"/>
			<path d="M311.661,296.301c-5.12,0-8.533,4.267-8.533,8.533c0,5.12,3.413,8.533,8.533,8.533s8.533-3.413,8.533-8.533
				S316.781,296.301,311.661,296.301z"/>
			<path d="M277.528,347.501c-5.12,0-8.533,4.267-8.533,8.533c0,5.12,3.413,8.533,8.533,8.533c5.12,0,8.533-3.413,8.533-8.533
				S282.648,347.501,277.528,347.501z"/>
			<path d="M294.595,321.901c-5.12,0-8.533,4.267-8.533,8.533c0,5.12,3.413,8.533,8.533,8.533s8.533-3.413,8.533-8.533
				S299.715,321.901,294.595,321.901z"/>
			<path d="M328.728,321.901c-5.12,0-8.533,4.267-8.533,8.533c0,5.12,3.413,8.533,8.533,8.533s8.533-3.413,8.533-8.533
				S333.848,321.901,328.728,321.901z"/>
			<path d="M362.861,321.901c-5.12,0-8.533,4.267-8.533,8.533c0,5.12,3.413,8.533,8.533,8.533s8.533-3.413,8.533-8.533
				S367.981,321.901,362.861,321.901z"/>
			<path d="M260.461,287.768c5.12,0,8.533-3.413,8.533-8.533s-3.413-8.533-8.533-8.533c-5.12,0-8.533,4.267-8.533,8.533
				C251.928,284.355,255.341,287.768,260.461,287.768z"/>
			<path d="M277.528,262.168c5.12,0,8.533-3.413,8.533-8.533s-3.413-8.533-8.533-8.533c-5.12,0-8.533,4.267-8.533,8.533
				C268.995,258.755,272.408,262.168,277.528,262.168z"/>
			<path d="M345.795,262.168c5.12,0,8.533-3.413,8.533-8.533s-3.413-8.533-8.533-8.533c-5.12,0-8.533,4.267-8.533,8.533
				C337.261,258.755,340.675,262.168,345.795,262.168z"/>
			<path d="M311.661,262.168c5.12,0,8.533-3.413,8.533-8.533s-3.413-8.533-8.533-8.533s-8.533,4.267-8.533,8.533
				C303.128,258.755,306.541,262.168,311.661,262.168z"/>
			<path d="M294.595,287.768c5.12,0,8.533-3.413,8.533-8.533s-3.413-8.533-8.533-8.533s-8.533,4.267-8.533,8.533
				C286.061,284.355,289.475,287.768,294.595,287.768z"/>
			<path d="M328.728,287.768c5.12,0,8.533-3.413,8.533-8.533s-3.413-8.533-8.533-8.533s-8.533,4.267-8.533,8.533
				C320.195,284.355,323.608,287.768,328.728,287.768z"/>
			<path d="M362.861,270.701c-5.12,0-8.533,4.267-8.533,8.533c0,5.12,3.413,8.533,8.533,8.533s8.533-3.413,8.533-8.533
				S367.981,270.701,362.861,270.701z"/>
			<path d="M379.928,245.101c-5.12,0-8.533,4.267-8.533,8.533c0,5.12,3.413,8.533,8.533,8.533s8.533-3.413,8.533-8.533
				S385.048,245.101,379.928,245.101z"/>
			<path d="M354.328,228.035c0,5.12,3.413,8.533,8.533,8.533s8.533-3.413,8.533-8.533s-3.413-8.533-8.533-8.533
				S354.328,223.768,354.328,228.035z"/>
			<path d="M402.248,219.29c-3.486-30.365-11.322-61.906-28.398-95.376c-0.748-6.361-3.814-11.983-8.576-15.621
				c-2.863-4.869-5.932-9.779-9.217-14.734c5.186-7.365,5.475-16.504,0.83-24.245c-5.12-8.533-15.36-11.947-25.6-8.533
				c-1.707,0.853-3.413,0-4.267-0.853s-2.56-1.707-1.707-4.267v-0.853c0.853-7.68-0.853-15.36-6.827-20.48
				c-5.12-5.973-13.653-7.68-21.333-5.12l-79.97,44.34l-98.377-69.94c-9.387-5.12-19.627-5.973-30.72-2.56
				c-9.387,2.56-17.92,9.387-23.04,18.773s-5.973,19.627-2.56,29.867c3.413,10.24,11.093,17.92,21.333,23.04l108.417,51.111
				l9.343,87.983v1.707c1.802,5.405,5.299,9.956,9.886,12.778c-23.274,19.25-36.34,47.809-36.34,77.675v111.787
				c0,52.053,41.813,93.867,93.867,93.867h85.333c52.053,0,93.867-41.813,93.867-93.013v-112.64
				C448.195,269.385,431.498,238.135,402.248,219.29z M388.461,249.768v3.866v42.667v8.533v15.36v7.68
				c0,7.373-1.28,14.425-3.621,20.955c-1.344-0.855-3.009-1.328-4.912-1.328c-5.12,0-8.533,4.267-8.533,8.533
				c0,3.977,2.065,6.915,5.384,8.033c-2.715,3.74-5.843,7.153-9.32,10.182c-1.287-0.737-2.838-1.148-4.597-1.148
				c-5.12,0-8.533,4.267-8.533,8.533c0,0.453,0.036,0.888,0.088,1.314c-6.445,3.187-13.536,5.289-21.049,6.047
				c2.433-1.413,3.894-4.02,3.894-7.361c0-5.12-3.413-8.533-8.533-8.533s-8.533,4.267-8.533,8.533c0,3.61,1.703,6.365,4.499,7.68
				h-26.064c2.796-1.315,4.499-4.07,4.499-7.68c0-5.12-3.413-8.533-8.533-8.533s-8.533,4.267-8.533,8.533
				c0,3.341,1.46,5.948,3.894,7.361c-7.513-0.758-14.604-2.86-21.049-6.047c0.052-0.426,0.088-0.86,0.088-1.314
				c0-5.12-3.413-8.533-8.533-8.533c-1.699,0-3.205,0.477-4.466,1.261c-3.529-3.057-6.702-6.508-9.451-10.295
				c3.319-1.118,5.384-4.056,5.384-8.033c0-5.12-3.413-8.533-8.533-8.533c-1.875,0-3.517,0.576-4.851,1.511
				c-2.383-6.58-3.683-13.696-3.683-21.137v-7.68v-15.36v-4.267c0-14.115,0.002-28.787,0.477-43.855
				c1.1,3.36,4.051,5.455,8.056,5.455c5.12,0,8.533-3.413,8.533-8.533s-3.413-8.533-8.533-8.533c-3.746,0-6.571,2.287-7.822,5.184
				c0.366-8.978,0.922-18.085,1.766-27.292c0.027-0.027,0.055-0.051,0.082-0.078l0.853-0.853c1.707-1.707,3.413-1.707,4.267-1.707
				c0.389,0,0.958,0.191,1.54,0.627c0.388,0.496,0.749,1.12,1.02,1.933c0.991,3.632,2.883,6.745,5.415,9.207
				c3.978,4.422,9.758,7.007,15.918,7.007c0,0,0,0,1.707,0c10.24-0.853,18.773-7.68,20.48-17.92c0.853-2.56,2.56-3.413,3.413-3.413
				c0.515,0,1.653,0.007,2.848,0.382c0.194,0.143,0.387,0.293,0.565,0.472c1.9,1.689,3.957,3.009,6.106,3.967
				c6.364,3.506,13.734,3.638,20.305,0.396c-1.064,1.47-1.664,3.245-1.664,5.024c0,5.12,3.413,8.533,8.533,8.533
				s8.533-3.413,8.533-8.533s-3.413-8.533-8.533-8.533c-0.692,0-1.349,0.084-1.974,0.229c6.172-5.543,8.343-14.403,5.387-23.269
				c-0.853-1.707,0-3.413,0.853-4.267c0.853,0,2.56-1.707,5.12-0.853c9.387,2.56,19.627-2.56,23.893-11.093
				c5.12-9.387,2.56-19.627-5.12-26.453c-1.707-1.707-1.707-3.413-1.707-4.267s0.853-2.56,3.413-3.413
				c2.489-0.679,4.789-1.788,6.822-3.226C382.359,180.401,387.307,215.587,388.461,249.768z M78.701,44.568
				c-1.707-5.973-0.853-11.947,1.707-17.067c2.56-5.12,7.68-9.387,12.8-11.093c5.973-1.707,11.947-0.853,16.213,1.707l96.427,68.267
				l-10.24,19.627L90.648,56.515C84.675,53.955,81.261,49.688,78.701,44.568z M207.58,120.759l6.957-13.435l8.377-15.823
				l78.507-43.52c1.707,0,3.413,0.853,4.267,1.707c0.853,0.853,1.707,1.707,0.853,4.267c-2.56,7.68,0,15.36,5.973,20.48
				s14.507,6.827,22.187,4.267c2.56-0.853,4.267,0.853,5.12,1.707c0.697,0.697,1.392,2.532,0.229,4.576
				c-0.715,0.377-1.375,0.836-1.936,1.397c-5.12,5.973-6.827,13.653-4.267,21.333c2.56,7.68,8.533,12.8,17.067,14.507
				c2.56,0.853,3.413,3.413,3.413,4.267s0,3.413-3.413,4.267c-6.827,2.56-12.8,8.533-14.507,16.213
				c-1.707,7.68,0.853,15.36,6.827,21.333c2.56,1.707,1.707,4.267,0.853,5.12c0,0.853-1.707,2.56-5.12,1.707
				c-7.68-2.56-15.36,0-20.48,5.973c-3.554,3.554-5.459,8.753-5.438,13.884c-0.022,2.478,0.357,5.007,1.171,7.45
				c0.109,0.328,0.176,0.642,0.208,0.942c-0.173,1.581-1.279,2.69-1.915,3.325c-0.853,0.853-3.413,1.707-5.973-0.853
				c-5.973-5.973-13.653-7.68-21.333-5.12c-7.68,2.56-12.8,8.533-14.507,17.067c-0.853,2.56-3.413,3.413-4.267,3.413
				s-3.413,0-4.267-3.413c-2.56-6.827-8.533-12.8-16.213-14.507c-7.68-1.707-15.36,0.853-21.333,6.827l-0.853,0.853
				c-0.519,0.519-1.031,1.04-1.502,1.583c-0.788,0.121-1.467,0.124-1.912,0.124c-0.853,0-2.56-0.853-3.413-2.56L207.58,120.759z
				 M431.128,416.621c0,42.667-34.133,76.8-76.8,76.8h-85.333c-42.667,0-76.8-34.133-76.8-76.8v-112.64
				c0-23.04,9.387-45.227,25.6-60.587v16.747c-0.213,13.973,0,27.627,0,41.28v19.627v7.68v0c0,43.52,34.987,78.507,78.507,78.507
				h30.72c21.788,0,41.435-8.77,55.519-22.882c14.218-14.191,22.988-33.838,22.988-55.625v-85.333
				c16.213,16.213,25.6,37.547,25.6,60.587V416.621z"/>
			<path d="M279.235,181.955c1.707,2.56,4.267,3.413,6.827,3.413c1.707,0,3.413,0,5.12-0.853c3.413-2.56,4.267-8.533,1.707-11.947
				l-33.28-46.08h60.587c5.12,0,8.533-3.413,8.533-8.533s-3.413-8.533-8.533-8.533h-76.8c-3.413,0-6.827,1.707-7.68,4.267
				s-0.853,5.973,0.853,8.533L279.235,181.955z"/>
		</g>
	</g>
</g>
</svg>